<svg xmlns="http://www.w3.org/2000/svg" viewBox="0 0 500 500"><g id="freepik--background-complete--inject-86"><path d="M218.94,281.68a12.06,12.06,0,0,0-10.39,9.82c-.69,4.32,1,9-.81,13a29.61,29.61,0,0,1-2.4,3.7,17,17,0,0,0,1.09,19.66,17.32,17.32,0,0,0,21.81,3.44,17.64,17.64,0,0,0,6.54-21.17c-1.12-2.62-2.9-5-3.32-7.82a28.11,28.11,0,0,1,.2-5.72,15.75,15.75,0,0,0-3.35-11.09,10.62,10.62,0,0,0-10.65-3.59" style="fill:#ebebeb"></path><path d="M220.23,352.5c-.14,0-.26-7.75-.26-17.31s.12-17.3.26-17.3.27,7.75.27,17.3S220.38,352.5,220.23,352.5Z" style="fill:#e0e0e0"></path><path d="M118.43,110.12c.49-3.54-4.52-6.46-8.28-6.76-1.79-.14-3.65.13-5.35-.46-3.68-1.28-5.15-6-8.74-7.55-2.68-1.13-5.77-.12-8.37,1.19s-5.17,2.95-8.08,3.14c-2.53.16-5.27-.78-7.49.46-1.64.92-2.51,2.82-4,3.94a9.64,9.64,0,0,1-5.27,1.43,15,15,0,0,0-5.43.88c-1.68.77-3.07,2.55-2.72,4.36Z" style="fill:#f5f5f5"></path><path d="M257.32,137.73c.49-3.54-4.51-6.46-8.27-6.76-1.79-.14-3.65.13-5.35-.46-3.68-1.28-5.15-6-8.74-7.55-2.68-1.13-5.77-.12-8.37,1.19s-5.18,2.95-8.08,3.14c-2.53.16-5.28-.78-7.49.46-1.65.92-2.51,2.82-4,3.94a9.69,9.69,0,0,1-5.27,1.43,14.82,14.82,0,0,0-5.43.89c-1.68.76-3.07,2.54-2.72,4.35Z" style="fill:#f5f5f5"></path><path d="M377.65,163.2c.61-4.4-5.6-8-10.27-8.39-2.22-.18-4.53.16-6.64-.58-4.57-1.59-6.39-7.49-10.85-9.37-3.33-1.4-7.16-.15-10.39,1.47s-6.42,3.67-10,3.9c-3.14.21-6.55-1-9.29.58-2.05,1.14-3.12,3.5-5,4.89s-4.25,1.65-6.54,1.77-4.66.15-6.74,1.1-3.81,3.16-3.38,5.41Z" style="fill:#f5f5f5"></path><rect x="415.52" y="182.65" width="32.65" height="85.46" style="fill:#ebebeb"></rect><rect x="431.84" y="182.65" width="16.32" height="85.46" style="fill:#e0e0e0"></rect><rect x="419.25" y="172.5" width="11.53" height="10.16" style="fill:#ebebeb"></rect><rect x="428.03" y="172.5" width="2.75" height="10.16" style="fill:#e0e0e0"></rect><rect x="412.8" y="182.06" width="36.33" height="0.59" style="fill:#e0e0e0"></rect><rect x="421.96" y="187.08" width="2.76" height="5.83" style="fill:#fff"></rect><path d="M431.84,195.2c0,.06-3.65.11-8.16.11s-8.16-.05-8.16-.11,3.65-.11,8.16-.11S431.84,195.14,431.84,195.2Z" style="fill:#e0e0e0"></path><rect x="438.43" y="187.08" width="2.76" height="5.83" style="fill:#f5f5f5"></rect><path d="M448.31,195.2c0,.06-3.65.11-8.16.11s-8.16-.05-8.16-.11,3.65-.11,8.16-.11S448.31,195.14,448.31,195.2Z" style="fill:#ebebeb"></path><rect x="438.43" y="198.65" width="2.76" height="5.83" style="fill:#f5f5f5"></rect><path d="M448.31,206.77c0,.06-3.65.11-8.16.11s-8.16,0-8.16-.11,3.65-.11,8.16-.11S448.31,206.71,448.31,206.77Z" style="fill:#ebebeb"></path><rect x="438.43" y="210.57" width="2.76" height="5.83" style="fill:#f5f5f5"></rect><path d="M448.31,218.69c0,.06-3.65.11-8.16.11s-8.16-.05-8.16-.11,3.65-.11,8.16-.11S448.31,218.63,448.31,218.69Z" style="fill:#ebebeb"></path><rect x="438.43" y="222.49" width="2.76" height="5.83" style="fill:#f5f5f5"></rect><path d="M448.31,230.61c0,.06-3.65.11-8.16.11s-8.16-.05-8.16-.11,3.65-.12,8.16-.12S448.31,230.54,448.31,230.61Z" style="fill:#ebebeb"></path><rect x="438.43" y="234.07" width="2.76" height="5.83" style="fill:#f5f5f5"></rect><path d="M448.31,242.18c0,.06-3.65.11-8.16.11s-8.16,0-8.16-.11,3.65-.11,8.16-.11S448.31,242.12,448.31,242.18Z" style="fill:#ebebeb"></path><rect x="438.43" y="245.69" width="2.76" height="5.83" style="fill:#f5f5f5"></rect><rect x="438.43" y="257.47" width="2.76" height="5.83" style="fill:#f5f5f5"></rect><path d="M448.31,253.81c0,.06-3.65.11-8.16.11s-8.16,0-8.16-.11,3.65-.11,8.16-.11S448.31,253.75,448.31,253.81Z" style="fill:#ebebeb"></path><rect x="421.96" y="198.83" width="2.76" height="5.83" style="fill:#fff"></rect><path d="M431.84,206.94c0,.07-3.65.12-8.16.12s-8.16-.05-8.16-.12,3.65-.11,8.16-.11S431.84,206.88,431.84,206.94Z" style="fill:#e0e0e0"></path><rect x="421.96" y="210.58" width="2.76" height="5.83" style="fill:#fff"></rect><path d="M431.84,218.69c0,.06-3.65.11-8.16.11s-8.16-.05-8.16-.11,3.65-.11,8.16-.11S431.84,218.63,431.84,218.69Z" style="fill:#e0e0e0"></path><rect x="421.96" y="222.32" width="2.76" height="5.83" style="fill:#fff"></rect><path d="M431.84,230.44c0,.06-3.65.11-8.16.11s-8.16-.05-8.16-.11,3.65-.11,8.16-.11S431.84,230.38,431.84,230.44Z" style="fill:#e0e0e0"></path><rect x="421.96" y="234.07" width="2.76" height="5.83" style="fill:#fff"></rect><path d="M431.84,242.18c0,.06-3.65.11-8.16.11s-8.16,0-8.16-.11,3.65-.11,8.16-.11S431.84,242.12,431.84,242.18Z" style="fill:#e0e0e0"></path><rect x="421.96" y="245.81" width="2.76" height="5.83" style="fill:#fff"></rect><path d="M431.84,253.93c0,.06-3.65.11-8.16.11s-8.16,0-8.16-.11,3.65-.11,8.16-.11S431.84,253.87,431.84,253.93Z" style="fill:#e0e0e0"></path><rect x="421.96" y="257.56" width="2.76" height="5.83" style="fill:#fff"></rect><rect x="82.26" y="179.1" width="37.48" height="118.79" style="fill:#f5f5f5"></rect><rect x="101" y="179.1" width="18.74" height="118.46" style="fill:#ebebeb"></rect><rect x="86.54" y="167.44" width="13.24" height="11.66" style="fill:#f5f5f5"></rect><rect x="96.62" y="167.44" width="3.15" height="11.66" style="fill:#ebebeb"></rect><polyline points="79.14 179.1 79.14 178.42 120.84 178.42 120.84 179.1" style="fill:#e0e0e0"></polyline><rect x="89.66" y="184.19" width="3.17" height="6.69" style="fill:#fafafa"></rect><path d="M101,193.5c0,.07-4.2.13-9.37.13s-9.37-.06-9.37-.13,4.19-.13,9.37-.13S101,193.43,101,193.5Z" style="fill:#e0e0e0"></path><rect x="108.56" y="184.19" width="3.17" height="6.69" style="fill:#e0e0e0"></rect><path d="M119.9,193.5c0,.07-4.19.13-9.37.13s-9.37-.06-9.37-.13,4.2-.13,9.37-.13S119.9,193.43,119.9,193.5Z" style="fill:#e0e0e0"></path><rect x="108.56" y="197.47" width="3.17" height="6.69" style="fill:#e0e0e0"></rect><path d="M119.9,206.78c0,.07-4.19.13-9.37.13s-9.37-.06-9.37-.13,4.2-.12,9.37-.12S119.9,206.71,119.9,206.78Z" style="fill:#e0e0e0"></path><rect x="108.56" y="211.15" width="3.17" height="6.69" style="fill:#e0e0e0"></rect><path d="M119.9,220.47c0,.07-4.19.12-9.37.12s-9.37-.05-9.37-.12,4.2-.13,9.37-.13S119.9,220.4,119.9,220.47Z" style="fill:#e0e0e0"></path><rect x="108.56" y="224.83" width="3.17" height="6.69" style="fill:#e0e0e0"></rect><path d="M119.9,234.15c0,.07-4.19.13-9.37.13s-9.37-.06-9.37-.13,4.2-.13,9.37-.13S119.9,234.08,119.9,234.15Z" style="fill:#e0e0e0"></path><rect x="108.56" y="238.13" width="3.17" height="6.69" style="fill:#e0e0e0"></rect><path d="M119.9,247.44c0,.07-4.19.13-9.37.13s-9.37-.06-9.37-.13,4.2-.13,9.37-.13S119.9,247.37,119.9,247.44Z" style="fill:#e0e0e0"></path><rect x="108.56" y="251.47" width="3.17" height="6.69" style="fill:#e0e0e0"></rect><rect x="108.56" y="264.99" width="3.17" height="6.69" style="fill:#e0e0e0"></rect><path d="M119.9,260.79c0,.07-4.19.12-9.37.12s-9.37-.05-9.37-.12,4.2-.13,9.37-.13S119.9,260.71,119.9,260.79Z" style="fill:#e0e0e0"></path><rect x="89.66" y="197.67" width="3.17" height="6.69" style="fill:#fafafa"></rect><path d="M101,207c0,.07-4.2.12-9.37.12s-9.37-.05-9.37-.12,4.19-.13,9.37-.13S101,206.92,101,207Z" style="fill:#e0e0e0"></path><rect x="89.66" y="211.16" width="3.17" height="6.69" style="fill:#fafafa"></rect><path d="M101,220.47c0,.07-4.2.13-9.37.13s-9.37-.06-9.37-.13,4.19-.13,9.37-.13S101,220.4,101,220.47Z" style="fill:#e0e0e0"></path><rect x="89.66" y="224.64" width="3.17" height="6.69" style="fill:#fafafa"></rect><path d="M101,234c0,.07-4.2.12-9.37.12s-9.37-.05-9.37-.12,4.19-.13,9.37-.13S101,233.89,101,234Z" style="fill:#e0e0e0"></path><rect x="89.66" y="238.13" width="3.17" height="6.69" style="fill:#fafafa"></rect><path d="M101,247.44c0,.07-4.2.13-9.37.13s-9.37-.06-9.37-.13,4.19-.13,9.37-.13S101,247.37,101,247.44Z" style="fill:#e0e0e0"></path><rect x="89.66" y="251.61" width="3.17" height="6.69" style="fill:#fafafa"></rect><path d="M101,260.92c0,.08-4.2.13-9.37.13s-9.37-.05-9.37-.13,4.19-.12,9.37-.12S101,260.85,101,260.92Z" style="fill:#e0e0e0"></path><rect x="89.66" y="265.09" width="3.17" height="6.69" style="fill:#fafafa"></rect><rect x="407.62" y="248.62" width="54.72" height="103.85" style="fill:#e0e0e0"></rect><rect x="436.68" y="248.62" width="25.66" height="103.85" style="fill:#ebebeb"></rect><rect x="419.09" y="258.39" width="4.92" height="11.95" style="fill:#f5f5f5"></rect><rect x="419.09" y="305.18" width="4.92" height="11.95" style="fill:#f5f5f5"></rect><path d="M436.68,275c0,.1-6.5.18-14.53.18s-14.53-.08-14.53-.18,6.51-.19,14.53-.19S436.68,274.94,436.68,275Z" style="fill:#f5f5f5"></path><rect x="419.09" y="281.96" width="4.92" height="11.95" style="fill:#f5f5f5"></rect><path d="M436.68,298.61c0,.1-6.5.18-14.53.18s-14.53-.08-14.53-.18,6.51-.19,14.53-.19S436.68,298.5,436.68,298.61Z" style="fill:#f5f5f5"></path><rect x="442.13" y="258.39" width="4.92" height="11.95" style="fill:#e0e0e0"></rect><rect x="452.81" y="258.39" width="4.92" height="11.95" style="fill:#e0e0e0"></rect><rect x="442.13" y="281.08" width="4.92" height="11.95" style="fill:#e0e0e0"></rect><rect x="452.81" y="281.08" width="4.92" height="11.95" style="fill:#e0e0e0"></rect><rect x="442.13" y="303.76" width="4.92" height="11.95" style="fill:#e0e0e0"></rect><rect x="452.81" y="303.76" width="4.92" height="11.95" style="fill:#e0e0e0"></rect><rect x="403.51" y="246.11" width="62.95" height="2.6" style="fill:#e0e0e0"></rect><path d="M462.72,249c0,.1-12.23.18-27.31.18s-27.32-.08-27.32-.18,12.23-.19,27.32-.19S462.72,248.85,462.72,249Z" style="fill:#ebebeb"></path><rect x="105.9" y="280.27" width="54.72" height="72.17" style="fill:#ebebeb"></rect><rect x="134.96" y="280.27" width="25.66" height="72.17" style="fill:#e0e0e0"></rect><rect x="117.37" y="290.04" width="4.92" height="11.95" style="fill:#f5f5f5"></rect><rect x="117.37" y="336.82" width="4.92" height="11.95" style="fill:#f5f5f5"></rect><path d="M135,306.68c0,.14-6.51.25-14.53.25s-14.53-.11-14.53-.25,6.5-.24,14.53-.24S135,306.55,135,306.68Z" style="fill:#f5f5f5"></path><rect x="117.37" y="313.61" width="4.92" height="11.95" style="fill:#f5f5f5"></rect><path d="M135,330.25c0,.14-6.51.25-14.53.25s-14.53-.11-14.53-.25,6.5-.24,14.53-.24S135,330.12,135,330.25Z" style="fill:#f5f5f5"></path><rect x="140.41" y="290.04" width="4.92" height="11.95" style="fill:#f5f5f5"></rect><rect x="151.08" y="290.04" width="4.92" height="11.95" style="fill:#f5f5f5"></rect><rect x="140.41" y="312.72" width="4.92" height="11.95" style="fill:#f5f5f5"></rect><rect x="151.08" y="312.72" width="4.92" height="11.95" style="fill:#f5f5f5"></rect><rect x="140.41" y="335.4" width="4.92" height="11.95" style="fill:#f5f5f5"></rect><rect x="151.08" y="335.4" width="4.92" height="11.95" style="fill:#f5f5f5"></rect><rect x="101.79" y="277.76" width="62.95" height="2.6" style="fill:#e0e0e0"></rect><path d="M161,280.6c0,.14-12.23.25-27.31.25s-27.32-.11-27.32-.25,12.23-.24,27.32-.24S161,280.47,161,280.6Z" style="fill:#ebebeb"></path><polygon points="105.98 352.73 50.83 352.73 50.59 265.56 105.74 265.56 105.98 352.73" style="fill:#ebebeb"></polygon><rect x="78.16" y="265.56" width="27.58" height="87.17" style="fill:#e0e0e0"></rect><rect x="56.88" y="248.4" width="19.48" height="17.16" style="fill:#ebebeb"></rect><rect x="71.72" y="248.4" width="4.64" height="17.16" style="fill:#e0e0e0"></rect><rect x="45.99" y="264.56" width="61.36" height="1" style="fill:#e0e0e0"></rect><rect x="61.47" y="273.04" width="4.67" height="9.84" style="fill:#fff"></rect><path d="M78.16,286.75c0,.11-6.17.19-13.79.19s-13.78-.08-13.78-.19,6.17-.19,13.78-.19S78.16,286.65,78.16,286.75Z" style="fill:#e0e0e0"></path><rect x="89.29" y="273.04" width="4.67" height="9.84" style="fill:#f5f5f5"></rect><path d="M106,286.75c0,.11-6.17.19-13.79.19s-13.79-.08-13.79-.19,6.18-.19,13.79-.19S106,286.65,106,286.75Z" style="fill:#ebebeb"></path><rect x="89.29" y="292.59" width="4.67" height="9.84" style="fill:#f5f5f5"></rect><path d="M106,306.3c0,.1-6.17.18-13.79.18s-13.79-.08-13.79-.18,6.18-.19,13.79-.19S106,306.19,106,306.3Z" style="fill:#ebebeb"></path><rect x="89.29" y="312.72" width="4.67" height="9.84" style="fill:#f5f5f5"></rect><path d="M106,326.43c0,.1-6.17.19-13.79.19s-13.79-.09-13.79-.19,6.18-.19,13.79-.19S106,326.33,106,326.43Z" style="fill:#ebebeb"></path><rect x="89.29" y="332.86" width="4.67" height="9.84" style="fill:#f5f5f5"></rect><path d="M106,346.56c0,.11-6.17.19-13.79.19s-13.79-.08-13.79-.19,6.18-.18,13.79-.18S106,346.46,106,346.56Z" style="fill:#ebebeb"></path><rect x="61.47" y="292.89" width="4.67" height="9.84" style="fill:#fff"></rect><path d="M78.16,306.59c0,.11-6.17.19-13.79.19s-13.78-.08-13.78-.19,6.17-.18,13.78-.18S78.16,306.49,78.16,306.59Z" style="fill:#e0e0e0"></path><rect x="61.47" y="312.73" width="4.67" height="9.84" style="fill:#fff"></rect><path d="M78.16,326.44c0,.1-6.17.19-13.79.19s-13.78-.09-13.78-.19,6.17-.19,13.78-.19S78.16,326.33,78.16,326.44Z" style="fill:#e0e0e0"></path><rect x="61.47" y="332.57" width="4.67" height="9.84" style="fill:#fff"></rect><path d="M78.16,346.28c0,.1-6.17.19-13.79.19s-13.78-.09-13.78-.19,6.17-.19,13.78-.19S78.16,346.18,78.16,346.28Z" style="fill:#e0e0e0"></path><path d="M383.21,292.26a10.28,10.28,0,0,0-8.84,8.35c-.58,3.68.88,7.67-.68,11.05a25.74,25.74,0,0,1-2.05,3.15,14.49,14.49,0,0,0,.93,16.72,14.71,14.71,0,0,0,18.55,2.92,15,15,0,0,0,5.57-18c-.95-2.22-2.47-4.26-2.82-6.66a24,24,0,0,1,.16-4.86,13.36,13.36,0,0,0-2.85-9.43,9,9,0,0,0-9.05-3.05" style="fill:#ebebeb"></path><path d="M384.31,352.5c-.14,0-.26-6.59-.26-14.72s.12-14.72.26-14.72.26,6.59.26,14.72S384.46,352.5,384.31,352.5Z" style="fill:#e0e0e0"></path><path d="M440.94,281.68a12.07,12.07,0,0,0-10.39,9.82c-.68,4.32,1,9-.81,13a28.52,28.52,0,0,1-2.4,3.7,17,17,0,0,0,1.09,19.66,17.32,17.32,0,0,0,21.81,3.44,17.63,17.63,0,0,0,6.54-21.17c-1.12-2.62-2.9-5-3.31-7.82a28.84,28.84,0,0,1,.19-5.72,15.75,15.75,0,0,0-3.35-11.09,10.6,10.6,0,0,0-10.64-3.59" style="fill:#f5f5f5"></path><path d="M442.24,352.5c-.15,0-.26-7.75-.26-17.31s.11-17.3.26-17.3.26,7.75.26,17.3S442.38,352.5,442.24,352.5Z" style="fill:#e0e0e0"></path><path d="M429.94,75.8c.61-4.4-5.6-8-10.27-8.39-2.22-.18-4.53.16-6.64-.57-4.57-1.6-6.39-7.5-10.85-9.38-3.33-1.4-7.16-.15-10.39,1.48s-6.42,3.67-10,3.9c-3.14.2-6.55-1-9.29.57-2.05,1.14-3.12,3.5-5,4.89s-4.25,1.65-6.54,1.77-4.66.15-6.74,1.11-3.81,3.15-3.38,5.41Z" style="fill:#f5f5f5"></path><path d="M459.67,126.67c.48-3.46-4.41-6.31-8.09-6.61-1.75-.14-3.57.13-5.23-.45-3.6-1.26-5-5.9-8.55-7.38-2.62-1.11-5.65-.13-8.19,1.15s-5.06,2.9-7.9,3.08c-2.47.16-5.16-.76-7.32.45-1.61.9-2.46,2.76-3.94,3.85a9.46,9.46,0,0,1-5.16,1.4A14.38,14.38,0,0,0,400,123c-1.64.75-3,2.49-2.66,4.26Z" style="fill:#ebebeb"></path><path d="M249.69,59.88c.48-3.47-4.41-6.32-8.09-6.61-1.75-.15-3.57.12-5.23-.46-3.6-1.25-5-5.9-8.55-7.38-2.62-1.11-5.64-.12-8.19,1.16s-5.06,2.89-7.9,3.07c-2.47.16-5.16-.75-7.32.45-1.61.9-2.46,2.76-3.94,3.86a9.37,9.37,0,0,1-5.16,1.39,14.59,14.59,0,0,0-5.31.87c-1.64.75-3,2.49-2.66,4.26Z" style="fill:#ebebeb"></path></g><g id="freepik--eiffel-tower--inject-86"><path d="M224.88,352.4l-1.63-1.16c.44-.61,43.41-61.25,55.12-126.31l2,.36C268.54,290.8,225.32,351.79,224.88,352.4Z" style="fill:#263238"></path><path d="M240.91,352.68l-22.68-.15-12.41,0,1.11-1.58c.35-.5,35.47-50.67,52.3-93.41C279.91,205,280.54,98.2,280.54,97.13v-1h20.94l0,1c0,1.09,3.11,109,23.79,161.53,16.84,42.76,47.48,91.9,47.79,92.39l1,1.53H336.23l-18.17-38.82c-1.59-3.27-6.44-13.24-29.81-12.61-11.4.3-18.78,5.11-23,9.09a23.83,23.83,0,0,0-4.5,6Zm-22.68-2.15,21.5.14L259,315.21a25.89,25.89,0,0,1,4.88-6.45c4.44-4.23,12.25-9.33,24.28-9.64l2.11,0c22.86,0,27.87,10.31,29.56,13.76l.21.44,17.43,37.26h33c-5.32-8.67-31.78-52.51-47-91.19-19.75-50.17-23.54-150.26-23.9-161.23h-17c-.11,11-1.7,110-21.44,160.17-15.23,38.68-45.33,83.35-51.43,92.24ZM304,276H278.07l.31-1.25c3.89-15.28,8.73-40.48,10.63-50.6l.15-.82h3.75l.15.82c1.9,10.12,6.73,35.32,10.62,50.6Zm-23.36-2h20.79c-3.74-15-8.24-38.33-10.18-48.67h-.43C288.87,235.67,284.38,259,280.64,274Z" style="fill:#263238"></path><path d="M290.45,75.88a9,9,0,0,0-9,9h17.93A9,9,0,0,0,290.45,75.88Z" style="fill:#263238"></path><rect x="282.43" y="85.4" width="15.99" height="11.48" style="fill:#455a64"></rect><rect x="280.56" y="94.96" width="19.79" height="4.81" style="fill:#263238"></rect><rect x="280.56" y="82.62" width="19.79" height="4.81" style="fill:#263238"></rect><path d="M290.68,24c.14,0,.26,12.62.26,28.18s-.12,28.19-.26,28.19-.26-12.62-.26-28.19S290.53,24,290.68,24Z" style="fill:#263238"></path><polygon points="258.97 219.21 261.05 226.88 321.18 226.88 323.49 219.21 258.97 219.21" style="fill:#263238"></polygon><polygon points="240.69 274.29 244.61 286.2 337.1 286.2 340.66 274.41 240.69 274.29" style="fill:#263238"></polygon><path d="M291.5,112.65s-.23-.16-.66-.49l-1.92-1.5-7.54-5.9a.08.08,0,0,1,0-.1l0,0,10.18-5.19.05.2-10.11.32.05-.22,4.88,2.57,2.57,1.33,1.33.67.67.33.34.16.17.07.08,0h0c.05,0,0,0-.09,0v0c-.05-.15,0,.28.16.21h0l0,0-.08.05-.15.11-.31.22-.63.45-1.26.91-2.57,1.88-5.36,3.94-.09-.28H291.5a.18.18,0,0,1,.17.17.17.17,0,0,1-.06.12L281,122.49l-.12-.31h10.54a.2.2,0,0,1,.19.19.22.22,0,0,1-.09.16l-10.84,7.54-.12-.37h11a.2.2,0,0,1,.21.2.21.21,0,0,1-.08.17l-11.39,8.84-.13-.39h11.3a.22.22,0,0,1,.22.22.22.22,0,0,1-.08.18l-11.82,9.23-.14-.41h11.67a.23.23,0,0,1,.23.23.22.22,0,0,1-.08.18l-12.66,10.46-.15-.43h12.43a.25.25,0,0,1,.25.25.28.28,0,0,1-.09.19l-13.53,11.19-.16-.44h13.2a.25.25,0,0,1,.25.25.25.25,0,0,1-.09.2l-14.37,11.64-.16-.46h14.37a.26.26,0,0,1,.26.26.26.26,0,0,1-.1.2L275,194.07l-.17-.46h15.87a.26.26,0,0,1,.26.26.26.26,0,0,1-.11.21l-17.62,12.65-.15-.47h17.33l-.16.45-15.58-12.66a.25.25,0,0,1,0-.35.26.26,0,0,1,.19-.1h15.87l-.17.44-14.36-12.65a.24.24,0,0,1,0-.34.26.26,0,0,1,.18-.09h14.37l-.16.42-13.2-11.65a.22.22,0,0,1,0-.32.25.25,0,0,1,.18-.08h13.21l-.16.38-11.92-11.2a.2.2,0,0,1,0-.3.23.23,0,0,1,.15-.07h12.27l-.14.36-11.7-10.45a.2.2,0,0,1,0-.28.2.2,0,0,1,.14-.06h11.94l-.12.32L280,138.86a.17.17,0,0,1,0-.24.21.21,0,0,1,.14-.07l11.3,0-.1.28L280.46,130a.13.13,0,0,1,0-.19.17.17,0,0,1,.11-.06l10.79,0-.08.22-10.17-7.55a.11.11,0,0,1,0-.14.09.09,0,0,1,.08,0l10.37,0,0,.14-7.77-7.24-1.88-1.77c-.41-.39-.6-.59-.6-.59l.63.56,1.91,1.74,7.82,7.18a.08.08,0,0,1,0,.11.09.09,0,0,1-.06,0l-10.37,0,.06-.18,10.2,7.52a.12.12,0,0,1,0,.17.16.16,0,0,1-.1.05H280.55l.09-.24,10.89,8.81a.15.15,0,0,1,0,.22.14.14,0,0,1-.12.06l-11.3,0,.1-.31,11.16,9.22a.19.19,0,0,1,0,.26.21.21,0,0,1-.14.07H279.34l.13-.34,11.72,10.43a.22.22,0,0,1,0,.3.2.2,0,0,1-.15.06H278.78l.15-.37,11.94,11.19a.21.21,0,0,1,0,.31.2.2,0,0,1-.16.07H277.51l.15-.4,13.22,11.63a.26.26,0,0,1,0,.34.27.27,0,0,1-.18.08H276.35l.16-.42q7,6.19,14.37,12.63a.24.24,0,0,1,0,.35.25.25,0,0,1-.19.09H274.85l.16-.45,15.58,12.65a.26.26,0,0,1-.16.46H273.1a.26.26,0,0,1-.26-.26.26.26,0,0,1,.11-.21l17.62-12.65.15.47H274.85a.26.26,0,0,1-.26-.26.28.28,0,0,1,.1-.21c5.44-4.33,10.83-8.63,15.87-12.63l.16.46H276.35a.26.26,0,0,1-.26-.26.26.26,0,0,1,.1-.2l14.37-11.64.16.45h-13.2a.25.25,0,0,1-.25-.25.22.22,0,0,1,.09-.19l13.53-11.19.16.43H278.62a.24.24,0,0,1-.24-.24.26.26,0,0,1,.08-.19l12.67-10.44.15.42H279.61a.23.23,0,0,1-.23-.23.21.21,0,0,1,.09-.18l11.82-9.22.14.4h-11.3a.22.22,0,0,1-.22-.22.23.23,0,0,1,.08-.17l11.41-8.82.12.37h-11a.2.2,0,0,1-.2-.2.22.22,0,0,1,.09-.17l10.86-7.53.11.35H280.87a.18.18,0,0,1-.18-.18.16.16,0,0,1,.06-.13l10.64-9.7.11.29-10.28,0a.15.15,0,0,1-.15-.15.16.16,0,0,1,.06-.13l5.37-3.93,2.57-1.87,1.27-.91.62-.45.32-.22.16-.11.08-.06,0,0,0,0h0c.16-.07.22.36.16.21l0,0a.22.22,0,0,1-.18,0l-.05,0-.1,0-.18-.07-.35-.16-.67-.34-1.33-.67-2.58-1.34L281.46,100a.12.12,0,0,1,0-.16.12.12,0,0,1,.1-.07l10.11-.29a.1.1,0,0,1,.11.1.11.11,0,0,1-.06.1l-10.2,5.14v-.13l7.49,6,1.9,1.53Z" style="fill:#263238"></path><path d="M290.43,206.52s-.42.22-1.24.61l-3.65,1.69-14,6.44,0-.22,10.95,7.87a.17.17,0,0,1,0,.23l-.06.05L268.6,230l0-.32,17.83,13.42a.22.22,0,0,1,0,.3.46.46,0,0,1-.07.07l-24.92,12.77,0-.41L281,268.64a.25.25,0,0,1,.07.35.2.2,0,0,1-.09.09l-29.61,16.13L247,287.58l-.12-.49,25.73-.2a.25.25,0,0,1,.26.25.27.27,0,0,1-.16.24l-32.14,13,.05-.42L260,314a.22.22,0,0,1,0,.3l-.09.07-37.17,16.27,0-.23,13.26,15,3.5,4,.9,1,.29.36-.32-.33-.93-1L236,345.57l-13.36-14.94a.13.13,0,0,1,0-.2l0,0L259.83,314l0,.37-19.45-14.07a.24.24,0,0,1-.05-.33.19.19,0,0,1,.1-.08l32.13-13,.09.5-25.73.21a.26.26,0,0,1-.26-.26.26.26,0,0,1,.13-.23l4.36-2.37,29.62-16.12,0,.44L261.26,256.2a.24.24,0,0,1-.06-.34.24.24,0,0,1,.09-.08l24.94-12.73,0,.37L268.4,230a.18.18,0,0,1,0-.26.13.13,0,0,1,.07-.06l13.93-6.73,0,.28-10.91-7.94a.13.13,0,0,1,0-.18l.05,0,14-6.32,3.68-1.64Z" style="fill:#263238"></path><path d="M273.1,206.52l1.16.54,3.36,1.64L290.48,215a.12.12,0,0,1,.06.16.09.09,0,0,1-.06.06l-20.75,10.86-.07-.33,13.59.48.09,0,5.72,3.33a.21.21,0,0,1,.07.28.2.2,0,0,1-.08.08l-23.56,13.21,0-.39,18.24,12.83a.26.26,0,0,1,.06.35.35.35,0,0,1-.1.08L255.7,269l.08-.41,13.64,14.71L272.8,287a.27.27,0,0,1,0,.37.24.24,0,0,1-.18.07l-25.73.2.15-.46,19.4,13.79a.24.24,0,0,1,.06.34.31.31,0,0,1-.11.09l-33.83,12.46.07-.36,18.81,17.82a.18.18,0,0,1,0,.25s0,0-.06,0l-31.16,14.22-8.46,3.83-2.21,1-.75.31s.24-.13.73-.36l2.18-1,8.42-3.92,31.1-14.37,0,.3-18.86-17.76a.22.22,0,0,1,0-.31l.09-.05,33.81-12.52-.06.43-19.42-13.77a.27.27,0,0,1-.06-.36.26.26,0,0,1,.21-.11l25.73-.21-.19.44L269,283.67,255.4,269a.25.25,0,0,1,0-.36l.07,0,28-12.93,0,.43-18.22-12.86a.23.23,0,0,1-.06-.32.27.27,0,0,1,.08-.07l23.59-13.17V230l-5.71-3.35.09,0-13.59-.53a.18.18,0,0,1-.17-.18.23.23,0,0,1,.1-.15L290.37,215v.22l-12.81-6.44-3.33-1.69C273.48,206.74,273.1,206.52,273.1,206.52Z" style="fill:#263238"></path><path d="M251.3,331.41c0,.14-6.34.06-14.15-.18s-14.14-.55-14.13-.69,6.34-.07,14.15.17S251.31,331.27,251.3,331.41Z" style="fill:#263238"></path><path d="M259.91,314.2c0,.15-6.15.13-13.72,0s-13.72-.41-13.72-.55,6.15-.13,13.73,0S259.92,314.06,259.91,314.2Z" style="fill:#263238"></path><path d="M266.29,301.13c0,.14-5.79,0-12.91-.25s-12.91-.62-12.9-.76,5.79,0,12.92.24S266.3,301,266.29,301.13Z" style="fill:#263238"></path><path d="M280.85,268.85c0,.15-5.58.26-12.45.26S256,269,256,268.85s5.57-.26,12.45-.26S280.85,268.71,280.85,268.85Z" style="fill:#263238"></path><path d="M283.6,255.84c0,.14-5.07.26-11.32.26S261,256,261,255.84s5.07-.26,11.32-.26S283.6,255.69,283.6,255.84Z" style="fill:#263238"></path><path d="M286.32,243.24a105.05,105.05,0,0,1-10.55.15,104.7,104.7,0,0,1-10.55-.37c0-.14,4.73-.21,10.56-.15S286.32,243.1,286.32,243.24Z" style="fill:#263238"></path><path d="M289,229.8a103.91,103.91,0,0,1-10.5.26,104.19,104.19,0,0,1-10.51-.26c0-.14,4.71-.26,10.51-.26S289,229.66,289,229.8Z" style="fill:#263238"></path><path d="M300.08,82.5a90.48,90.48,0,0,1-9.79.26,90.33,90.33,0,0,1-9.79-.26,93.5,93.5,0,0,1,9.79-.26A93.66,93.66,0,0,1,300.08,82.5Z" style="fill:#455a64"></path><path d="M300.35,99.84a92.14,92.14,0,0,1-9.88.26,92.26,92.26,0,0,1-9.89-.26,95.5,95.5,0,0,1,9.89-.26A95.38,95.38,0,0,1,300.35,99.84Z" style="fill:#455a64"></path><path d="M283.73,87.45a5.63,5.63,0,0,1-.26-2.4,5.63,5.63,0,0,1,.26-2.4,5.82,5.82,0,0,1,.26,2.4A5.82,5.82,0,0,1,283.73,87.45Z" style="fill:#455a64"></path><path d="M286.93,87.45a5.82,5.82,0,0,1-.26-2.4,5.82,5.82,0,0,1,.26-2.4,5.63,5.63,0,0,1,.26,2.4A5.63,5.63,0,0,1,286.93,87.45Z" style="fill:#455a64"></path><path d="M290.14,87.45a5.63,5.63,0,0,1-.26-2.4,5.63,5.63,0,0,1,.26-2.4,5.82,5.82,0,0,1,.26,2.4A5.82,5.82,0,0,1,290.14,87.45Z" style="fill:#455a64"></path><path d="M293.34,87.45a5.82,5.82,0,0,1-.26-2.4,5.82,5.82,0,0,1,.26-2.4,5.63,5.63,0,0,1,.26,2.4A5.63,5.63,0,0,1,293.34,87.45Z" style="fill:#455a64"></path><path d="M296.55,87.45a5.63,5.63,0,0,1-.26-2.4,5.63,5.63,0,0,1,.26-2.4,5.82,5.82,0,0,1,.26,2.4A5.82,5.82,0,0,1,296.55,87.45Z" style="fill:#455a64"></path><path d="M283.73,99.53a5.63,5.63,0,0,1-.26-2.4,5.63,5.63,0,0,1,.26-2.4,5.82,5.82,0,0,1,.26,2.4A5.82,5.82,0,0,1,283.73,99.53Z" style="fill:#455a64"></path><path d="M286.93,99.53a5.82,5.82,0,0,1-.26-2.4,5.82,5.82,0,0,1,.26-2.4,5.63,5.63,0,0,1,.26,2.4A5.63,5.63,0,0,1,286.93,99.53Z" style="fill:#455a64"></path><path d="M290.14,99.53a5.63,5.63,0,0,1-.26-2.4,5.63,5.63,0,0,1,.26-2.4,5.82,5.82,0,0,1,.26,2.4A5.82,5.82,0,0,1,290.14,99.53Z" style="fill:#455a64"></path><path d="M293.34,99.53a5.82,5.82,0,0,1-.26-2.4,5.82,5.82,0,0,1,.26-2.4,5.63,5.63,0,0,1,.26,2.4A5.63,5.63,0,0,1,293.34,99.53Z" style="fill:#455a64"></path><path d="M296.55,99.53a5.63,5.63,0,0,1-.26-2.4,5.63,5.63,0,0,1,.26-2.4,5.82,5.82,0,0,1,.26,2.4A5.82,5.82,0,0,1,296.55,99.53Z" style="fill:#455a64"></path><path d="M324.08,215.14c0,.14-14.6.26-32.61.26s-32.61-.12-32.61-.26,14.6-.26,32.61-.26S324.08,215,324.08,215.14Z" style="fill:#263238"></path><path d="M259.25,219.21a8.09,8.09,0,0,1,0-4.07,8.09,8.09,0,0,1,0,4.07Z" style="fill:#263238"></path><path d="M263.52,219.21a8.09,8.09,0,0,1,0-4.07c.15,0,.27.91.27,2S263.67,219.21,263.52,219.21Z" style="fill:#263238"></path><path d="M267.8,219.21a8.09,8.09,0,0,1,0-4.07,8.09,8.09,0,0,1,0,4.07Z" style="fill:#263238"></path><path d="M272.08,219.21c-.15,0-.27-.91-.27-2s.12-2,.27-2a8.09,8.09,0,0,1,0,4.07Z" style="fill:#263238"></path><path d="M276.35,219.21a8.09,8.09,0,0,1,0-4.07,8.09,8.09,0,0,1,0,4.07Z" style="fill:#263238"></path><path d="M280.63,219.21c-.15,0-.26-.91-.26-2s.11-2,.26-2a8.09,8.09,0,0,1,0,4.07Z" style="fill:#263238"></path><path d="M284.9,219.21a8.09,8.09,0,0,1,0-4.07c.15,0,.26.91.26,2S285.05,219.21,284.9,219.21Z" style="fill:#263238"></path><path d="M289.18,219.21c-.15,0-.26-.91-.26-2s.11-2,.26-2a8.09,8.09,0,0,1,0,4.07Z" style="fill:#263238"></path><path d="M293.45,219.21a8.09,8.09,0,0,1,0-4.07c.15,0,.26.91.26,2S293.6,219.21,293.45,219.21Z" style="fill:#263238"></path><path d="M297.73,219.21c-.15,0-.26-.91-.26-2s.11-2,.26-2a8.09,8.09,0,0,1,0,4.07Z" style="fill:#263238"></path><path d="M302,219.21a8.09,8.09,0,0,1,0-4.07c.15,0,.26.91.26,2S302.15,219.21,302,219.21Z" style="fill:#263238"></path><path d="M306.28,219.21c-.15,0-.26-.91-.26-2s.11-2,.26-2a8.09,8.09,0,0,1,0,4.07Z" style="fill:#263238"></path><path d="M310.55,219.21a8.09,8.09,0,0,1,0-4.07c.15,0,.26.91.26,2S310.7,219.21,310.55,219.21Z" style="fill:#263238"></path><path d="M314.83,219.21c-.15,0-.26-.91-.26-2s.11-2,.26-2a8.09,8.09,0,0,1,0,4.07Z" style="fill:#263238"></path><path d="M319.1,219.21a8.09,8.09,0,0,1,0-4.07c.15,0,.26.91.26,2S319.25,219.21,319.1,219.21Z" style="fill:#263238"></path><path d="M323.38,219.21c-.15,0-.26-.91-.26-2s.11-2,.26-2a8.09,8.09,0,0,1,0,4.07Z" style="fill:#263238"></path><path d="M340.66,270.21c0,.15-22.44.26-50.1.26s-50.1-.11-50.1-.26,22.43-.26,50.1-.26S340.66,270.07,340.66,270.21Z" style="fill:#263238"></path><path d="M240.85,274.29a8.13,8.13,0,0,1,0-4.08,8.13,8.13,0,0,1,0,4.08Z" style="fill:#263238"></path><path d="M245.13,274.29c-.15,0-.26-.91-.26-2s.11-2,.26-2a8.13,8.13,0,0,1,0,4.08Z" style="fill:#263238"></path><path d="M249.4,274.29a8.13,8.13,0,0,1,0-4.08c.15,0,.26.92.26,2S249.55,274.29,249.4,274.29Z" style="fill:#263238"></path><path d="M253.68,274.29c-.15,0-.26-.91-.26-2s.11-2,.26-2a8.13,8.13,0,0,1,0,4.08Z" style="fill:#263238"></path><path d="M258,274.29a8.13,8.13,0,0,1,0-4.08c.15,0,.26.92.26,2S258.1,274.29,258,274.29Z" style="fill:#263238"></path><path d="M262.23,274.29c-.15,0-.26-.91-.26-2s.11-2,.26-2a8.13,8.13,0,0,1,0,4.08Z" style="fill:#263238"></path><path d="M266.5,274.29a8.13,8.13,0,0,1,0-4.08c.15,0,.26.92.26,2S266.65,274.29,266.5,274.29Z" style="fill:#263238"></path><path d="M270.78,274.29c-.15,0-.26-.91-.26-2s.11-2,.26-2a8.13,8.13,0,0,1,0,4.08Z" style="fill:#263238"></path><path d="M275.05,274.29a8.13,8.13,0,0,1,0-4.08c.15,0,.26.92.26,2S275.2,274.29,275.05,274.29Z" style="fill:#263238"></path><path d="M279.33,274.29c-.15,0-.26-.91-.26-2s.11-2,.26-2a8.13,8.13,0,0,1,0,4.08Z" style="fill:#263238"></path><path d="M283.6,274.29a8.13,8.13,0,0,1,0-4.08c.15,0,.26.92.26,2S283.75,274.29,283.6,274.29Z" style="fill:#263238"></path><path d="M287.88,274.29c-.15,0-.26-.91-.26-2s.11-2,.26-2a8.13,8.13,0,0,1,0,4.08Z" style="fill:#263238"></path><path d="M292.15,274.29a8.13,8.13,0,0,1,0-4.08c.15,0,.26.92.26,2S292.3,274.29,292.15,274.29Z" style="fill:#263238"></path><path d="M296.43,274.29a8.13,8.13,0,0,1,0-4.08,8.13,8.13,0,0,1,0,4.08Z" style="fill:#263238"></path><path d="M300.7,274.29a8.13,8.13,0,0,1,0-4.08c.15,0,.27.92.27,2S300.85,274.29,300.7,274.29Z" style="fill:#263238"></path><path d="M305.39,274.29c-.15,0-.26-.91-.26-2s.11-2,.26-2a8.13,8.13,0,0,1,0,4.08Z" style="fill:#263238"></path><path d="M310.18,274.29c-.15,0-.26-.91-.26-2s.11-2,.26-2a8.13,8.13,0,0,1,0,4.08Z" style="fill:#263238"></path><path d="M314.91,274.29c-.15,0-.26-.91-.26-2s.11-2,.26-2a8.13,8.13,0,0,1,0,4.08Z" style="fill:#263238"></path><path d="M319.18,274.29a8.13,8.13,0,0,1,0-4.08c.15,0,.26.92.26,2S319.33,274.29,319.18,274.29Z" style="fill:#263238"></path><path d="M323.46,274.29c-.15,0-.26-.91-.26-2s.11-2,.26-2a8.13,8.13,0,0,1,0,4.08Z" style="fill:#263238"></path><path d="M327.73,274.29a8.13,8.13,0,0,1,0-4.08c.15,0,.26.92.26,2S327.88,274.29,327.73,274.29Z" style="fill:#263238"></path><path d="M332,274.29c-.15,0-.26-.91-.26-2s.11-2,.26-2a8.13,8.13,0,0,1,0,4.08Z" style="fill:#263238"></path><path d="M336.28,274.29a8.13,8.13,0,0,1,0-4.08c.15,0,.26.92.26,2S336.43,274.29,336.28,274.29Z" style="fill:#263238"></path><path d="M340.56,274.29c-.15,0-.26-.91-.26-2s.11-2,.26-2a8.13,8.13,0,0,1,0,4.08Z" style="fill:#263238"></path><path d="M321.26,226.83c0,.15-13.37.26-29.85.26s-29.84-.11-29.84-.26,13.36-.26,29.84-.26S321.26,226.69,321.26,226.83Z" style="fill:#455a64"></path><path d="M323.12,219.28c0,.14-14.34.26-32,.26s-32-.12-32-.26,14.34-.26,32-.26S323.12,219.13,323.12,219.28Z" style="fill:#455a64"></path><path d="M340.66,274.41c0,.15-22.38.24-50,.2s-50-.18-50-.32,22.38-.23,50-.2S340.66,274.27,340.66,274.41Z" style="fill:#455a64"></path><path d="M241.53,350.59l-.87-.49c4.85-8.54,8.8-16,13.19-24.87q2.34-4.73,4.65-9.34c5.2-10.4,10.11-20.22,14.82-30.93l.91.4c-4.72,10.73-9.63,20.57-14.84,31-1.54,3.08-3.09,6.18-4.65,9.33C250.34,334.58,246.39,342,241.53,350.59Z" style="fill:#263238"></path><rect x="311.87" y="274.01" width="1" height="45.64" transform="translate(-89.96 142.51) rotate(-22.55)" style="fill:#263238"></rect><path d="M337.1,286.2c0,.14-20.59.26-46,.26s-46-.12-46-.26,20.58-.26,46-.26S337.1,286.06,337.1,286.2Z" style="fill:#455a64"></path><rect x="226.42" y="158.93" width="129.26" height="1" transform="matrix(0.01, -1, 1, 0.01, 128.78, 448.9)" style="fill:#263238"></rect><path d="M291.67,113.17l.57-.49,1.73-1.44,6.83-5.65v.12l-9.42-5.86a.09.09,0,0,1,0-.13.1.1,0,0,1,.08,0l9.31.06a.12.12,0,0,1,.12.11.13.13,0,0,1-.06.1l-4.51,2.84-2.39,1.48-1.23.74-.64.37-.32.17-.19.09a.19.19,0,0,1-.19,0l0,0c.12-.34.23-.1.17-.17h0l0,0,.08,0c3.15,2.38,6.43,5,9.92,7.68a.15.15,0,0,1,0,.21.14.14,0,0,1-.12.06l-9.77-.09.11-.27,10.14,9.8a.16.16,0,0,1,0,.24.13.13,0,0,1-.12.05H291.26l.11-.33,10.86,7.53a.19.19,0,0,1,0,.26.17.17,0,0,1-.16.09h-11l.13-.36,11.4,8.82a.21.21,0,0,1,0,.29.2.2,0,0,1-.17.08h-11.3l.13-.39,12.15,8.77a.24.24,0,0,1,.05.32.21.21,0,0,1-.18.09l-12.12-.17.15-.41,13.37,10.71a.25.25,0,0,1,0,.34.25.25,0,0,1-.2.09l-13.79-.34.15-.44,15,11.39a.25.25,0,0,1,.05.35.26.26,0,0,1-.2.1l-14.76-.07.15-.46,16.47,11.79a.25.25,0,0,1,.06.36.26.26,0,0,1-.21.11l-17-.27.15-.47L309.15,194a.25.25,0,0,1,.06.36.26.26,0,0,1-.21.11l-15.43-.33-3.06-.07.14-.48,20.46,12.68a.26.26,0,0,1,.08.36.25.25,0,0,1-.22.12H290.51a.26.26,0,0,1-.26-.26.24.24,0,0,1,.12-.21L308.86,194l.14.46-18.49-.4a.26.26,0,0,1-.25-.26.23.23,0,0,1,.1-.19l17-12.39.14.44-17-.28a.24.24,0,0,1-.24-.24.22.22,0,0,1,.1-.18l15.31-11.45.13.41-14.76-.08a.22.22,0,0,1-.22-.22.21.21,0,0,1,.08-.17l13.6-11,.13.38-13.8-.35a.21.21,0,0,1-.2-.21.28.28,0,0,1,.08-.15L303.27,148l.12.34-12.12-.19a.17.17,0,0,1-.17-.18.17.17,0,0,1,.07-.14l11.27-8.6.1.3h-11.3a.16.16,0,0,1-.16-.16.2.2,0,0,1,.06-.12L302,130.41l.08.24H291.33a.12.12,0,0,1-.12-.13.12.12,0,0,1,.05-.09l10.2-7.52.06.18-10.38,0a.07.07,0,0,1-.07-.07.08.08,0,0,1,0,0l7.83-7.2,1.9-1.73.63-.56s-.19.2-.6.59L299,115.79,291.19,123l-.05-.12,10.38,0a.11.11,0,0,1,.1.1.12.12,0,0,1,0,.08l-10.18,7.55-.07-.22h10.78a.13.13,0,0,1,.14.13.13.13,0,0,1-.05.11c-3.27,2.67-6.78,5.52-10.87,8.84l-.09-.27h11.3a.17.17,0,0,1,.17.16.17.17,0,0,1-.07.14l-11.25,8.62-.11-.33,12.11.17a.18.18,0,0,1,.19.19.17.17,0,0,1-.07.14L291,158.48l-.12-.36,13.8.34a.2.2,0,0,1,.2.21.19.19,0,0,1-.08.16l-13.58,11-.14-.39,14.76.06a.23.23,0,0,1,.23.23.21.21,0,0,1-.09.18l-15.3,11.46-.14-.42,17,.26a.25.25,0,0,1,.24.25.23.23,0,0,1-.1.19l-17,12.4-.14-.45L309,194a.26.26,0,0,1,.25.26.27.27,0,0,1-.12.2l-18.49,12.29-.14-.47H311l-.14.48-20.46-12.68a.26.26,0,0,1-.08-.36.27.27,0,0,1,.23-.12l3.06.07L309,194l-.16.47-18.49-13.06a.27.27,0,0,1-.06-.36.24.24,0,0,1,.22-.11l17,.27-.15.46-16.48-11.8a.25.25,0,0,1,.15-.45l14.76.07-.15.45-15-11.4a.24.24,0,0,1-.05-.34.28.28,0,0,1,.2-.1l13.8.35-.16.42-13.36-10.72a.22.22,0,0,1,0-.32.21.21,0,0,1,.18-.09l12.11.18-.13.41-12.15-8.79a.22.22,0,0,1,.13-.39h11.3l-.13.38L291,130.67a.19.19,0,0,1,0-.28.18.18,0,0,1,.15-.08h11l-.11.35-10.84-7.54a.18.18,0,0,1-.05-.25.21.21,0,0,1,.15-.08H301.8l-.12.29-10.12-9.81a.17.17,0,0,1,.11-.28l9.78.11-.1.26c-3.48-2.72-6.76-5.32-9.89-7.69l-.07,0h0c0,.07.07-.17.08-.14s0-.14,0-.11,0,0,0,0l.15-.07.32-.17.63-.36,1.23-.74,2.39-1.47,4.52-2.82.06.21-9.31-.09.05-.18,9.4,5.9a.07.07,0,0,1,0,.09v0L294,111.3l-1.74,1.41Z" style="fill:#263238"></path><path d="M290.51,206.52l.38.14,1.1.44,4.29,1.76,16.37,6.78a.13.13,0,0,1,.07.17.1.1,0,0,1-.05.06l-12.35,7.93,0-.29,15.55,6.74a.19.19,0,0,1,.1.25.18.18,0,0,1-.07.08L296.47,244l0-.38,27,12.74a.23.23,0,0,1,.11.32.24.24,0,0,1-.09.11L302,269.69v-.44l32.37,16.63,2.86,1.47a.27.27,0,0,1,.12.35.28.28,0,0,1-.24.15l-28.39-.08.09-.49,34.94,13.18a.25.25,0,0,1,.14.31.29.29,0,0,1-.1.12l-24,14.42,0-.38L360,331a.14.14,0,0,1,.09.19l0,.06-16.58,15-4.41,4-1.14,1-.4.33s.12-.13.37-.36l1.11-1.05c1-.92,2.47-2.26,4.36-4l16.49-15.08.05.24-40.28-16a.22.22,0,0,1-.12-.28.24.24,0,0,1,.09-.11l23.94-14.46,0,.43-34.95-13.15a.25.25,0,0,1-.14-.33.25.25,0,0,1,.24-.17l28.38.07-.12.49-2.85-1.47L301.7,269.7a.26.26,0,0,1-.11-.34.36.36,0,0,1,.1-.11l21.53-12.84,0,.43-27-12.78a.22.22,0,0,1-.11-.29.24.24,0,0,1,.08-.09l19.45-13.42,0,.34-15.53-6.78a.16.16,0,0,1-.09-.22.14.14,0,0,1,.06-.07l12.38-7.88,0,.23L296.23,209,292,207.17l-1.09-.48A3.34,3.34,0,0,1,290.51,206.52Z" style="fill:#263238"></path><path d="M311,206.52l-1.34.63-3.95,1.76-15.12,6.69v-.23l22.53,11a.19.19,0,0,1,.08.24.2.2,0,0,1-.16.1l-13.59.52.1,0-5.71,3.35v-.36l25.51,13.16a.23.23,0,0,1,.1.32.24.24,0,0,1-.08.09L299.2,256.66l0-.43,29.66,13a.27.27,0,0,1,.14.34l-.07.09-16.44,14.79-3.61,3.25-.17-.45,28.38.07a.26.26,0,0,1,.26.26.24.24,0,0,1-.12.21L314.76,302l-.05-.43L350.27,314a.21.21,0,0,1,.13.27.23.23,0,0,1-.07.1l-22.45,18.14-.05-.3,32.59,14.1,8.79,3.83,2.28,1c.51.23.76.36.76.36l-.78-.31-2.3-1-8.83-3.75-32.65-13.95a.18.18,0,0,1-.09-.24.15.15,0,0,1,0-.06l22.41-18.21.07.37L314.55,302a.24.24,0,0,1-.15-.31.22.22,0,0,1,.1-.13l22.42-14.17.13.47-28.39-.06a.26.26,0,0,1-.26-.26.25.25,0,0,1,.09-.19l3.61-3.25,16.45-14.8.07.43-29.66-13a.24.24,0,0,1-.12-.32.2.2,0,0,1,.09-.11l20.16-12.83,0,.4L293.62,230.6a.2.2,0,0,1-.09-.27.24.24,0,0,1,.08-.09l5.72-3.33a.16.16,0,0,1,.09,0L313,226.4l-.07.34L290.45,215.6a.13.13,0,0,1-.05-.17.09.09,0,0,1,.06-.06l15.17-6.58,4-1.71C310.5,206.7,311,206.52,311,206.52Z" style="fill:#263238"></path><path d="M327.76,332.42c0-.15,7.13-.55,15.93-.89s15.95-.52,16-.37-7.13.54-15.93.89S327.77,332.56,327.76,332.42Z" style="fill:#263238"></path><path d="M319.65,315.13c0-.15,6.83-.46,15.27-.71s15.27-.32,15.28-.18-6.83.46-15.27.7S319.66,315.27,319.65,315.13Z" style="fill:#263238"></path><path d="M343.61,300.68a2.26,2.26,0,0,1-.56.07l-1.61.1-6,.29-20.77.86h-.08l-.06,0a45,45,0,0,0-25.13-6.59,53.32,53.32,0,0,0-12.47,1.9,58.2,58.2,0,0,0-8,2.85c-.92.41-1.63.74-2.1,1a5.44,5.44,0,0,1-.74.34,4.61,4.61,0,0,1,.69-.43c.46-.27,1.16-.64,2.07-1.08a53.64,53.64,0,0,1,20.58-5,45,45,0,0,1,25.4,6.64l-.14,0,20.78-.67,6-.15,1.62,0A3.53,3.53,0,0,1,343.61,300.68Z" style="fill:#263238"></path><path d="M301.82,269.47c0-.14,6-.26,13.45-.26s13.45.12,13.45.26-6,.26-13.45.26S301.82,269.62,301.82,269.47Z" style="fill:#263238"></path><path d="M298.46,256.46c0-.15,5.57-.26,12.44-.26s12.45.11,12.45.26-5.57.26-12.45.26S298.46,256.6,298.46,256.46Z" style="fill:#263238"></path><path d="M296.34,243.86c0-.14,5.12-.31,11.43-.37s11.44,0,11.44.15-5.11.31-11.43.37S296.34,244,296.34,243.86Z" style="fill:#263238"></path><path d="M293.71,230.42a19.66,19.66,0,0,1,3.24-.18c2-.05,4.75-.08,7.79-.08,0,1,0,.29,0,.52H307l2.07,0,3.5,0a20,20,0,0,0,3.23-.19,19.46,19.46,0,0,0-3.23-.18l-3.5-.06h-4.29c0,.23,0-.52,0,.52-3,0-5.8,0-7.79-.07A20.21,20.21,0,0,1,293.71,230.42Z" style="fill:#263238"></path><path d="M301,105.43a44.25,44.25,0,0,1-9.58,0,44.25,44.25,0,0,1,9.58,0Z" style="fill:#263238"></path><path d="M291.74,104.81a50.15,50.15,0,0,1-10.2,0,50.15,50.15,0,0,1,10.2,0Z" style="fill:#263238"></path><path d="M355,352.12c-28.81-41.65-52.06-125.87-52.29-126.72l1.93-.53c.23.85,23.39,84.75,52,126.11Z" style="fill:#263238"></path><path d="M270.42,299.29c-.13,0-.53-.65-.89-1.57s-.54-1.71-.4-1.76.53.65.89,1.57S270.55,299.24,270.42,299.29Z" style="fill:#263238"></path><path d="M274.26,297.77a9.24,9.24,0,0,1-2-2.93,9.06,9.06,0,0,1-1.24-3.35,19.26,19.26,0,0,1,1.7,3.11A19.69,19.69,0,0,1,274.26,297.77Z" style="fill:#263238"></path><path d="M278.59,296.62a35.55,35.55,0,0,1-4.95-10.28,50.13,50.13,0,0,1,2.53,5.11A49.24,49.24,0,0,1,278.59,296.62Z" style="fill:#263238"></path><path d="M281.43,296a34.76,34.76,0,0,1-1.11-4.92,32.49,32.49,0,0,1-.87-5,19.93,19.93,0,0,1,1.38,4.86A19.6,19.6,0,0,1,281.43,296Z" style="fill:#263238"></path><path d="M290.51,295a39,39,0,0,1,0-9,39,39,0,0,1,0,9Z" style="fill:#263238"></path><path d="M286.1,295.35a22.63,22.63,0,0,1-.64-4.85,23.77,23.77,0,0,1-.11-4.89,23,23,0,0,1,.63,4.85A23.38,23.38,0,0,1,286.1,295.35Z" style="fill:#263238"></path><path d="M310.72,299.29c-.13-.05,0-.84.41-1.76s.75-1.63.89-1.57,0,.84-.41,1.76S310.86,299.34,310.72,299.29Z" style="fill:#263238"></path><path d="M306.88,297.77a19.69,19.69,0,0,1,1.57-3.17,19.26,19.26,0,0,1,1.7-3.11,9.14,9.14,0,0,1-1.23,3.35A9,9,0,0,1,306.88,297.77Z" style="fill:#263238"></path><path d="M302.55,296.62a51.82,51.82,0,0,1,2.42-5.17,52.72,52.72,0,0,1,2.53-5.11,22.68,22.68,0,0,1-2.06,5.34A23,23,0,0,1,302.55,296.62Z" style="fill:#263238"></path><path d="M299.71,296a19.6,19.6,0,0,1,.6-5,19.17,19.17,0,0,1,1.39-4.86,33.34,33.34,0,0,1-.88,5A31.74,31.74,0,0,1,299.71,296Z" style="fill:#263238"></path><path d="M295.05,295.35a22.17,22.17,0,0,1,.11-4.89,23.85,23.85,0,0,1,.63-4.85,22.19,22.19,0,0,1-.11,4.89A23.85,23.85,0,0,1,295.05,295.35Z" style="fill:#263238"></path></g><g id="freepik--Floor--inject-86"><path d="M451.26,352.54c0,.15-90.11.26-201.25.26s-201.27-.11-201.27-.26,90.09-.26,201.27-.26S451.26,352.4,451.26,352.54Z" style="fill:#263238"></path></g><g id="freepik--Trees--inject-86"><path d="M159.19,302.56a8.5,8.5,0,0,1,7.33,6.93c.48,3-.73,6.36.57,9.16a19.94,19.94,0,0,0,1.69,2.6,12,12,0,0,1-.77,13.87,12.21,12.21,0,0,1-15.38,2.42A12.45,12.45,0,0,1,148,322.61c.79-1.84,2-3.53,2.34-5.51a19.42,19.42,0,0,0-.14-4,11.17,11.17,0,0,1,2.36-7.83,7.48,7.48,0,0,1,7.51-2.52" style="fill:#455a64"></path><path d="M158.28,352.5c-.15,0-.26-5.47-.26-12.2s.11-12.21.26-12.21.26,5.47.26,12.21S158.42,352.5,158.28,352.5Z" style="fill:#263238"></path><path d="M187,315.19a6.35,6.35,0,0,1,5.48,5.17c.36,2.28-.54,4.75.42,6.85a15.4,15.4,0,0,0,1.27,1.94,9,9,0,0,1-.57,10.36,9.12,9.12,0,0,1-11.49,1.81,9.27,9.27,0,0,1-3.45-11.15c.59-1.38,1.53-2.64,1.75-4.12a15.17,15.17,0,0,0-.11-3,8.33,8.33,0,0,1,1.77-5.85,5.62,5.62,0,0,1,5.61-1.89" style="fill:#455a64"></path><path d="M186.29,352.5a81.17,81.17,0,0,1-.26-9.12,81.06,81.06,0,0,1,.26-9.11,78.3,78.3,0,0,1,.26,9.11A78.41,78.41,0,0,1,186.29,352.5Z" style="fill:#263238"></path><path d="M78.14,302.56a8.51,8.51,0,0,1,7.33,6.93c.48,3-.73,6.36.57,9.16a19.94,19.94,0,0,0,1.69,2.6A12,12,0,0,1,87,335.12a12.21,12.21,0,0,1-15.38,2.42A12.45,12.45,0,0,1,67,322.61c.79-1.84,2-3.53,2.34-5.51a20.91,20.91,0,0,0-.14-4,11.12,11.12,0,0,1,2.36-7.83A7.48,7.48,0,0,1,79,302.72" style="fill:#455a64"></path><path d="M77.23,352.5c-.15,0-.26-5.47-.26-12.2s.11-12.21.26-12.21.26,5.47.26,12.21S77.37,352.5,77.23,352.5Z" style="fill:#263238"></path><path d="M106.19,323.75a4.89,4.89,0,0,0-4.22,4c-.28,1.76.41,3.67-.33,5.28a12.06,12.06,0,0,1-1,1.5,6.92,6.92,0,0,0,.45,8,7,7,0,0,0,8.85,1.4,7.18,7.18,0,0,0,2.66-8.6,13.33,13.33,0,0,1-1.35-3.17,12,12,0,0,1,.08-2.32,6.43,6.43,0,0,0-1.36-4.51,4.3,4.3,0,0,0-4.32-1.45" style="fill:#455a64"></path><path d="M106.71,352.5a48.38,48.38,0,0,1-.26-7,48.18,48.18,0,0,1,.26-7,46.55,46.55,0,0,1,.26,7A46.74,46.74,0,0,1,106.71,352.5Z" style="fill:#263238"></path><path d="M130.77,315.19a6.36,6.36,0,0,0-5.48,5.17c-.36,2.28.54,4.75-.42,6.85a15.4,15.4,0,0,1-1.27,1.94,9,9,0,0,0,.58,10.36,9.11,9.11,0,0,0,11.49,1.81,9.28,9.28,0,0,0,3.44-11.15c-.59-1.38-1.53-2.64-1.75-4.12a15.17,15.17,0,0,1,.11-3,8.33,8.33,0,0,0-1.77-5.85,5.61,5.61,0,0,0-5.6-1.89" style="fill:#455a64"></path><path d="M131.45,352.5a81.17,81.17,0,0,1-.26-9.12,81.06,81.06,0,0,1,.26-9.11,81.06,81.06,0,0,1,.26,9.11A81.17,81.17,0,0,1,131.45,352.5Z" style="fill:#263238"></path><path d="M390.17,323.75a4.88,4.88,0,0,0-4.21,4c-.28,1.76.41,3.67-.33,5.28a12.06,12.06,0,0,1-1,1.5,6.92,6.92,0,0,0,.45,8,7,7,0,0,0,8.85,1.4,7.18,7.18,0,0,0,2.66-8.6,13.33,13.33,0,0,1-1.35-3.17,11.26,11.26,0,0,1,.08-2.32,6.43,6.43,0,0,0-1.36-4.51,4.3,4.3,0,0,0-4.32-1.45" style="fill:#455a64"></path><path d="M390.7,352.5a48.38,48.38,0,0,1-.26-7,48.18,48.18,0,0,1,.26-7,48.18,48.18,0,0,1,.26,7A48.38,48.38,0,0,1,390.7,352.5Z" style="fill:#263238"></path><path d="M408.11,315.19a6.35,6.35,0,0,0-5.48,5.17c-.36,2.28.54,4.75-.43,6.85a15.33,15.33,0,0,1-1.26,1.94,9,9,0,0,0,.57,10.36A9.12,9.12,0,0,0,413,341.32a9.27,9.27,0,0,0,3.45-11.15c-.59-1.38-1.53-2.64-1.75-4.12a15.17,15.17,0,0,1,.11-3,8.33,8.33,0,0,0-1.77-5.85,5.62,5.62,0,0,0-5.61-1.89" style="fill:#455a64"></path><path d="M408.79,352.5a78.41,78.41,0,0,1-.26-9.12,78.3,78.3,0,0,1,.26-9.11,81.06,81.06,0,0,1,.26,9.11A81.17,81.17,0,0,1,408.79,352.5Z" style="fill:#263238"></path><path d="M430.64,302.56a8.51,8.51,0,0,0-7.33,6.93c-.48,3,.73,6.36-.57,9.16a19.94,19.94,0,0,1-1.69,2.6,12,12,0,0,0,.77,13.87,12.21,12.21,0,0,0,15.38,2.42,12.45,12.45,0,0,0,4.61-14.93c-.79-1.84-2.05-3.53-2.34-5.51a20.91,20.91,0,0,1,.14-4,11.12,11.12,0,0,0-2.36-7.83,7.48,7.48,0,0,0-7.51-2.52" style="fill:#455a64"></path><path d="M431.55,352.5c-.14,0-.26-5.47-.26-12.2s.12-12.21.26-12.21.26,5.47.26,12.21S431.7,352.5,431.55,352.5Z" style="fill:#263238"></path></g></svg>